<?xml version="1.0" encoding="UTF-8" standalone="no"?>
<svg
   xmlns:dc="http://purl.org/dc/elements/1.1/"
   xmlns:cc="http://creativecommons.org/ns#"
   xmlns:rdf="http://www.w3.org/1999/02/22-rdf-syntax-ns#"
   xmlns:svg="http://www.w3.org/2000/svg"
   xmlns="http://www.w3.org/2000/svg"
   xmlns:xlink="http://www.w3.org/1999/xlink"
   xmlns:sodipodi="http://sodipodi.sourceforge.net/DTD/sodipodi-0.dtd"
   xmlns:inkscape="http://www.inkscape.org/namespaces/inkscape"
   sodipodi:docname="Nakatsugawa.svg"
   inkscape:version="1.0 (4035a4fb49, 2020-05-01)"
   id="svg2"
   version="1.1"
   height="780"
   width="660">
  <metadata
     id="metadata275">
    <rdf:RDF>
      <cc:Work
         rdf:about="">
        <dc:format>image/svg+xml</dc:format>
        <dc:type
           rdf:resource="http://purl.org/dc/dcmitype/StillImage" />
        <dc:title>岐阜県行政区画地図</dc:title>
      </cc:Work>
    </rdf:RDF>
  </metadata>
  <defs
     id="defs273">
    <defs
       id="defs8">
      <path
         d="m 255,-4 v 4 l 4,5 -3,12 -4,8 4,4 -8,8 h -4 l -1,4 1,5 6,2 3,3 8,26 -10,10 v 6 l 3,18 5,-4 6,1 4,1 2,-4 6,-13 -3,-8 13,-2 2,-9 3,4 -3,4 3,1 -1,4 7,-1 7,-8 10,4 12,7 8,17 -2,8 -4,9 7,3 5,-7 12,-4 4,-9 -1,-3 1,-2 h 7 l 7,-5 3,-9 -5,-1 6,-12 -1,-3 5,-3 v -1 l 11,-3 -1,-7 4,-1 5,-9 4,-1 5,-10 h 1 l 11,-12 7,3 8,-3 1,5 1,1 4,10 18,-19 4,4 v 1 l 11,-7 9,4 4,-3 4,2 -3,11 h -1 l 1,6 4,2 17,-6 2,-8 13,-5 2,13 7,6 23,7 6,-7 h 1 15 l 2,7 11,11 11,2 h 3 l 8,-1 8,-7 1,-9 11,-4 5,-16 5,-3 -2,-16 7,-3 v -3 l 1,-2 z"
         id="16000"
         inkscape:connector-curvature="0" />
      <path
         d="M 120,-4 118,0 107,14 98,27 90,37 78,50 65,63 46,77 32,80 21,99 7,112 l 1,1 6,2 -1,5 3,1 1,8 13,2 9,9 1,6 7,3 -1,9 -1,6 6,15 10,5 20,-3 2,9 6,3 6,7 4,-1 5,2 14,-12 3,5 5,1 6,-2 5,2 8,-4 9,6 14,8 5,7 1,5 16,9 3,11 v 2 l 7,1 13,-4 6,-4 h 12 l 6,-2 v -1 -2 l 4,-8 2,-3 5,-13 -3,-13 -2,-1 v -3 l 14,-5 6,-13 3,-2 1,-6 14,-20 -6,-8 -4,-3 h -7 l -10,-18 -3,-18 v -6 l 10,-10 -8,-26 -3,-3 -6,-2 -1,-5 1,-4 h 4 l 8,-8 -4,-4 4,-8 3,-12 -4,-5 v -4 z"
         id="17000"
         inkscape:connector-curvature="0" />
      <path
         d="m -4,454 h 4 l 5,5 3,-2 8,5 5,5 9,-10 -4,-7 12,-13 3,-3 -1,-26 3,-6 h 7 l 4,-3 2,-3 10,-5 5,4 h 5 l 4,5 3,-1 7,4 9,-1 5,-1 5,3 6,-2 3,5 5,10 4,-7 -1,-5 5,-9 10,5 5,-1 7,2 12,-11 11,6 4,-5 7,-7 4,12 5,1 5,-5 15,1 6,-9 8,4 7,-5 h 5 l 4,6 h 6 l 4,-16 2,-9 6,1 6,-4 2,-6 -6,-12 2,-6 -4,-9 -14,-10 4,-11 -18,-6 -2,-3 2,-15 -6,-2 -6,-2 4,-24 -1,-6 10,-9 4,-1 -4,-10 -6,2 h -12 l -6,4 -13,4 -7,-1 v -2 l -3,-11 -16,-9 -1,-5 -5,-7 -14,-8 -9,-6 -8,4 -5,-2 -6,2 -5,-1 -3,-5 -14,12 -5,-2 -4,1 -6,-7 -6,-3 -2,-9 -20,3 -10,-5 -6,-15 1,-6 1,-9 -7,-3 -1,-6 -9,-9 -13,-2 -1,-8 -3,-1 1,-5 -6,-2 -1,-1 -11,9 z"
         id="18000"
         inkscape:connector-curvature="0" />
      <path
         d="m 648,-4 -1,2 v 3 l -7,3 2,16 -5,3 -5,16 -11,4 -1,9 -8,7 -1,10 14,4 7,10 2,3 h 4 l 3,22 -2,8 -8,5 -9,14 -12,19 -4,1 2,12 7,3 v 12 l -17,17 2,5 -4,10 8,9 3,5 10,7 8,-1 v 10 l -7,9 v 8 1 l -4,11 -12,9 -9,5 v 9 l -5,2 -3,11 -9,1 -3,5 -7,10 -3,11 -8,3 -9,-9 -11,2 -15,5 -8,8 v 16 l -3,4 -11,1 -3,16 5,8 7,-2 4,3 11,-1 4,1 v 7 l 1,4 17,3 3,7 9,-1 3,9 10,15 -1,5 5,6 v 5 l 6,3 11,10 5,8 -11,18 -3,6 3,4 8,9 h 15 l -3,9 3,4 1,9 7,4 6,4 3,-2 11,14 -3,5 3,14 -3,4 h -3 l -12,12 11,9 4,10 3,2 1,5 -9,5 -17,-5 v 1 l 2,4 8,7 3,23 -10,9 -3,2 -9,5 3,11 4,4 -7,4 1,5 -5,8 h 1 l 2,6 10,10 1,9 1,5 15,-6 h 14 l 5,-5 -1,-3 6,-3 8,-4 5,1 V -4 z"
         id="20000"
         inkscape:connector-curvature="0" />
      <path
         d="m 664,784 v -78 h -3 l -2,-2 -8,4 -6,3 1,3 -5,5 h -14 l -15,6 -1,-5 -1,-9 -10,-10 -2,-6 h -1 l 5,-8 -1,-5 7,-4 -4,-4 v 3 l -8,2 -11,-2 v 5 l -7,7 -4,-1 v 3 l -19,10 -11,10 -6,-9 -4,3 -2,-3 -8,-1 -2,-10 -4,-2 -13,3 -2,-4 3,-4 -5,-2 -13,-9 -15,1 -6,3 -2,7 -8,4 -7,5 -5,-2 -3,4 -7,-1 -1,1 -7,-7 1,-3 -2,-3 -3,-4 -9,2 -6,-8 -14,-4 -2,6 -7,-1 v -7 l -7,-4 -1,-4 4,-4 -1,-2 -4,-5 -6,3 -1,-3 -1,-7 1,-7 -6,-3 -9,-7 h -5 l -6,-11 -5,-1 7,-12 -13,2 -2,3 v 1 8 l -18,12 h -13 l -13,3 -14,9 h -1 l -18,-4 1,-1 -8,-2 h -1 l -6,5 -3,9 -9,18 -14,20 -12,19 v 1 l 1,7 1,8 v 8 l -5,5 v 9 22 l 14,9 5,7 7,7 z"
         id="23000"
         inkscape:connector-curvature="0" />
      <path
         d="m 224,784 -7,-7 -5,-7 -14,-9 -7,-15 -5,-3 v 12 l -7,-3 -3,3 -5,-4 -4,-13 -4,-3 -5,-7 -4,-5 -7,-2 v -4 l -1,-4 h -5 l 2,-7 -5,-3 -2,-7 -4,-4 -5,2 -5,11 -10,-3 -1,3 -9,-1 -9,11 -4,-6 -8,5 1,2 -4,15 7,2 13,10 1,3 v 5 l -5,1 -4,11 6,4 -3,5 v 2 10 z"
         id="24000"
         inkscape:connector-curvature="0" />
      <path
         d="m 93,784 v -10 -2 l 3,-5 -6,-4 4,-11 5,-1 v -5 l -1,-3 -13,-10 -7,-2 4,-15 -1,-2 -17,-14 9,-8 -1,-12 -2,-5 2,-3 3,-4 10,-27 -1,-3 -5,1 2,-12 7,-1 7,-8 -15,-16 3,-9 2,-6 -1,-12 -8,-2 -7,-10 3,-10 5,-3 -2,-10 -7,-2 -5,-15 h -5 l -4,12 -4,1 -3,-8 -7,3 -3,-7 3,-10 v -13 l -3,-4 2,-3 2,-3 -4,-4 -10,3 -7,-10 2,-3 -3,-6 2,-4 -5,-5 -8,-5 -3,2 -5,-5 h -4 v 330 z"
         id="25000"
         inkscape:connector-curvature="0" />
      <path
         d="m 263,619 h 1 v -21 l 12,-3 1,4 h 6 l 1,-5 5,-1 -1,-5 h 6 l 2,-6 -6,-5 -5,1 -6,-4 -5,3 1,-11 2,-9 3,-3 4,3 v -5 l -6,1 -6,-9 -6,-5 h -2 l -3,4 2,8 -6,3 2,7 -5,5 -1,-4 h -8 l -10,-9 h -7 l -3,-6 -6,-2 -8,-12 h -1 l -8,4 5,5 -3,6 6,7 -3,2 3,9 h -5 l -1,4 6,8 v 8 l -2,20 6,15 -7,10 -1,8 5,-2 5,3 3,-2 3,1 2,-2 13,-5 -2,-2 5,-5 2,-8 7,-4 9,7 h 5 z"
         id="21201"
         inkscape:connector-curvature="0" />
      <path
         d="m 190,623 -6,-3 -6,-1 -2,-8 -2,-1 h -3 l -3,7 -10,-8 1,-1 h -17 l -1,5 4,1 -3,3 v -3 h -3 l 3,6 -2,5 8,4 v 15 l 9,1 1,7 3,1 -2,3 4,3 v 7 l 7,6 13,-10 v -1 -11 l 8,-4 z m 16,16 1,-8 -5,-3 -3,3 -1,11 8,1 z m -142,61 17,14 8,-5 4,6 9,-11 9,1 1,-3 10,3 5,-11 5,-2 -2,-4 v -21 l -7,-9 4,-7 2,-1 6,4 1,-4 -3,-7 h -8 l -4,-6 -9,-2 -11,15 -1,10 -14,4 2,4 -4,7 -9,-7 -5,7 2,5 1,12 z"
         id="21202"
         inkscape:connector-curvature="0" />
      <path
         d="m 297,265 4,-3 4,9 11,4 6,11 7,4 6,12 v 18 l 5,4 2,-3 14,-21 9,4 4,-3 10,10 v 13 l 6,8 1,3 3,-2 1,-15 4,1 8,-12 -5,-4 -2,-2 7,-15 12,-11 10,-13 12,-5 2,5 15,4 3,8 10,11 8,1 24,-8 5,-2 -1,7 13,12 -1,13 8,-3 7,-9 7,-2 h 3 l 2,4 6,2 2,10 17,15 7,-10 3,-5 9,-1 3,-11 5,-2 v -9 l 9,-5 12,-9 4,-11 v -1 -8 l 7,-9 v -10 l -8,1 -10,-7 -3,-5 -8,-9 4,-10 -2,-5 17,-17 v -12 l -6,-2 -3,-9 v -5 h 4 l 3,-6 9,-13 9,-14 8,-5 2,-8 -3,-22 h -4 l -2,-3 -7,-10 -14,-4 1,-10 -8,1 h -3 l -11,-2 -7,6 h -5 l -7,-1 -6,7 -5,-3 -13,5 -5,-3 -5,2 -3,7 2,3 -11,5 -14,-4 -1,12 4,5 v 8 l -3,5 -12,-2 -3,7 h -20 l -6,4 -3,6 -12,8 -8,-1 -3,3 -1,6 -7,5 3,7 1,4 -8,-5 -5,5 -8,-1 -1,7 h -7 l -7,9 h -4 l -7,-19 -7,2 -7,10 -4,-1 -4,5 -6,-3 -8,4 -16,-2 -10,-1 -5,-8 -3,1 -1,21 -5,15 11,8 -1,6 h -4 l -6,3 1,4 -4,6 -13,-6 -12,2 -6,-2 -17,7 -5,-6 -4,-2 -5,5 -11,-4 -4,8 v 2 1 l 4,10 6,8 8,1 3,5 -2,6 h 2 l 6,11 h 7 l 3,6 z"
         id="21203"
         inkscape:connector-curvature="0" />
      <path
         d="m 380,652 1,2 -4,4 1,4 7,4 v 7 l 7,1 2,-6 14,4 6,8 9,-2 3,4 2,3 5,-4 -5,-4 3,-2 -5,-14 -8,-4 3,-5 -7,-11 6,-4 -5,-12 -6,-1 -5,-2 -5,8 -4,-3 -7,2 -4,-2 -2,-6 -7,-10 1,5 h 3 l -6,5 v 9 l -4,2 v 1 l -1,7 1,7 1,3 6,-3 z"
         id="21204"
         inkscape:connector-curvature="0" />
      <path
         d="m 264,539 h 2 l 6,5 6,9 6,-1 v 5 l -4,-3 -3,3 -2,9 -1,11 5,-3 6,4 5,-1 6,5 -2,6 h 3 l 7,-1 14,9 h 6 l 3,-1 2,-7 v -1 l 2,-12 -4,-3 4,-6 -5,-2 -2,-7 v -4 l 9,-1 11,1 v -6 h 4 l 5,-9 9,-7 2,-4 4,2 13,-13 -4,-1 -5,-10 3,-17 13,-5 1,1 2,-6 -4,-5 4,-4 3,-12 h -4 l -5,1 -2,-4 h -6 l -6,-5 -2,11 4,6 -3,2 v 5 l -9,5 -8,-6 -9,1 -4,4 2,14 -4,2 -2,17 -8,11 1,9 -7,1 -3,8 -5,6 -11,-3 -2,9 -8,-4 -8,-4 -4,-12 -6,-4 -1,-5 4,-3 -1,-7 -1,-7 5,-10 -3,-4 4,-10 3,-1 4,1 -1,-6 5,-3 -2,-2 -16,-25 6,-13 1,-12 -10,-5 1,-6 4,-1 -2,-6 -6,1 -9,-5 h -5 l -3,-8 h -6 l -4,-6 h -5 l -7,5 -8,-4 -6,9 -15,-1 -5,5 3,5 5,2 4,10 -5,9 1,7 4,3 2,2 h 14 l -4,13 8,1 2,4 7,3 6,-2 1,9 13,3 3,5 v 24 l -5,6 -5,1 5,5 v 10 l 4,-2 7,7 -5,8 z"
         id="21205"
         inkscape:connector-curvature="0" />
      <path
         d="m 615,535 -7,-4 -1,-9 -3,-4 3,-9 h -15 l -8,-9 -3,-4 3,-6 11,-18 -5,-8 -11,-10 -6,-3 v -5 l -5,-6 1,-5 -10,-15 -3,-9 -9,1 -3,-7 -17,-3 -1,-4 v -7 l -4,-1 -11,1 -12,18 -4,11 3,19 6,4 v 4 h 4 l 9,14 11,5 5,2 -4,7 5,4 1,7 -9,10 -3,4 6,12 -2,10 -12,-3 -11,3 1,5 -2,3 4,9 v 12 l 8,3 8,-2 4,4 -2,5 1,6 7,-1 11,6 5,10 9,8 18,1 -8,6 -19,3 -5,1 8,17 10,12 9,5 1,-2 8,-6 13,-3 9,-6 v -4 l 3,-4 5,2 17,5 9,-5 -1,-5 -3,-2 -4,-10 -11,-9 12,-12 h 3 l 3,-4 -3,-14 3,-5 -11,-14 -3,2 z"
         id="21206"
         inkscape:connector-curvature="0" />
      <path
         d="m 319,539 3,-8 7,-1 -1,-9 8,-11 2,-17 h -12 l -4,9 h -3 l -6,-2 -9,-14 -3,-10 -8,-4 -5,3 1,6 -4,-1 -3,1 -4,10 3,4 -5,10 1,7 1,7 -4,3 1,5 6,4 4,12 8,4 8,4 2,-9 11,3 z"
         id="21207"
         inkscape:connector-curvature="0" />
      <path
         d="m 497,672 -1,-6 10,-7 -3,-5 -5,-5 -15,5 1,-4 6,-10 5,-2 1,-8 7,-8 2,-7 -3,-4 5,-9 -8,-5 2,-2 -3,-6 h -8 l -6,-5 -2,-5 -5,7 -6,-2 -4,-7 h -5 l -7,4 -3,-9 -4,2 -3,-3 -5,3 v 9 l -3,2 4,14 -3,3 v 4 l -3,1 1,4 11,5 3,13 -2,2 v 5 l 11,11 v 4 l 3,2 3,-2 8,8 3,-1 -1,5 -2,11 15,-1 z"
         id="21208"
         inkscape:connector-curvature="0" />
      <path
         d="m 198,673 2,9 -9,11 10,8 12,-19 14,-20 9,-18 -10,-3 -2,-4 -2,2 -3,-1 -3,2 -5,-3 -5,2 v 4 l -1,9 -9,8 -1,4 z"
         id="21209"
         inkscape:connector-curvature="0" />
      <path
         d="m 484,650 -1,4 15,-5 5,5 3,5 -10,7 1,6 -9,1 13,9 5,2 -3,4 2,4 13,-3 4,2 2,10 8,1 2,3 4,-3 6,9 11,-10 19,-10 v -3 l 4,1 7,-7 v -5 l 11,2 8,-2 v -3 l -3,-11 9,-5 3,-2 10,-9 -3,-23 -8,-7 -2,-4 v -1 l -5,-2 -3,4 v 4 l -9,6 -13,3 -8,6 -1,2 -9,-5 -10,-12 -8,-17 5,-1 19,-3 8,-6 -18,-1 -9,-8 -5,-10 -11,-6 -7,1 -1,-6 2,-5 -4,-4 -8,2 -8,-3 v -12 l -4,-9 -9,7 -23,4 -1,1 8,11 -10,8 v 6 l -3,1 -3,9 h 5 l 4,7 6,2 5,-7 2,5 6,5 h 8 l 3,6 -2,2 8,5 -5,9 3,4 -2,7 -7,8 -1,8 -5,2 z"
         id="21210"
         inkscape:connector-curvature="0" />
      <path
         d="m 386,585 h -3 l -1,-5 4,-1 1,-5 -7,-5 -8,10 -1,-3 v -13 l -7,-4 16,-19 -3,-4 1,-5 -4,-2 v 3 l -6,-3 -4,-2 -2,4 -9,7 -5,9 h -4 v 6 l 5,4 -3,3 6,1 v 5 l -11,3 -1,4 h -5 l -3,-5 -1,7 -2,12 15,-4 v 6 l 5,1 2,6 2,-3 10,-1 10,-4 4,1 3,2 6,-5 z"
         id="21211"
         inkscape:connector-curvature="0" />
      <path
         d="m 431,675 -3,2 5,4 -5,4 -1,3 7,7 1,-1 7,1 3,-4 5,2 7,-5 8,-4 2,-7 6,-3 2,-11 1,-5 -3,1 -8,-8 -3,2 -3,-2 v -4 l -11,-11 v -5 l 2,-2 -3,-13 -11,-5 -7,6 -8,-3 -6,11 5,12 -6,4 7,11 -3,5 8,4 z"
         id="21212"
         inkscape:connector-curvature="0" />
      <path
         d="m 254,632 -1,1 18,4 h 1 l 14,-9 13,-3 h 13 l 18,-12 v -8 l -5,-1 -1,-8 h -6 l -14,-9 -7,1 h -3 -6 l 1,5 -5,1 -1,5 h -6 l -1,-4 -12,3 v 21 h -1 v 1 l 2,3 1,3 -6,1 -3,6 z"
         id="21213"
         inkscape:connector-curvature="0" />
      <path
         d="m 386,586 3,1 2,-4 3,3 5,-6 -4,-4 -9,9 z m 23,38 6,1 6,-11 -12,-8 -5,-1 -2,-3 -6,1 v -7 l -3,-4 -13,4 -1,-3 1,-2 -3,-2 -4,-1 -10,4 -10,1 -2,3 -1,3 h -5 l -7,12 5,1 6,11 h 5 l 9,7 6,3 v -1 l 4,-2 v -9 l 6,-5 h -3 l -1,-5 7,10 2,6 4,2 7,-2 4,3 5,-8 z"
         id="21214"
         inkscape:connector-curvature="0" />
      <path
         d="m 264,539 -3,-8 5,-8 -7,-7 -4,2 v -10 l -5,-5 5,-1 5,-6 v -24 l -3,-5 -13,-3 -1,-9 -6,2 -7,-3 -2,-4 -8,-1 4,-13 h -14 l -3,19 2,7 -3,5 -5,3 v 10 l -5,6 1,8 -2,6 5,9 10,24 h 1 l 8,12 6,2 3,6 h 7 l 10,9 h 8 l 1,4 5,-5 -2,-7 6,-3 -2,-8 z"
         id="21215"
         inkscape:connector-curvature="0" />
      <path
         d="m 199,631 3,-3 5,3 7,-10 -6,-15 -5,-1 v -3 l -13,-1 -9,-4 3,13 v 10 l 6,3 4,6 z"
         id="21216"
         inkscape:connector-curvature="0" />
      <path
         d="m 470,121 6,-4 h 20 l 3,-7 12,2 3,-5 v -8 l -4,-5 1,-12 14,4 11,-5 -2,-3 3,-7 5,-2 5,3 13,-5 5,3 6,-7 7,1 h 5 l 7,-6 -11,-11 -2,-7 h -15 -1 l -6,7 -23,-7 -7,-6 -2,-13 -13,5 -2,8 -17,6 -4,-2 -1,-6 h 1 l 3,-11 -4,-2 -4,3 -9,-4 -11,7 v -1 l -4,-4 -18,19 -4,-10 -1,-1 -1,-5 -8,3 -7,-3 -11,12 h -1 l -5,10 -4,1 -5,9 -4,1 1,7 -11,3 v 1 l -5,3 1,3 -6,12 5,1 -3,9 -7,5 h -7 l -1,2 1,3 -4,9 -12,4 -5,7 -2,3 -8,17 3,4 -4,8 1,4 5,8 10,1 16,2 8,-4 6,3 4,-5 4,1 7,-10 7,-2 7,19 h 4 l 7,-9 h 7 l 1,-7 8,1 5,-5 8,5 -1,-4 -3,-7 7,-5 1,-6 3,-3 8,1 12,-8 z"
         id="21217"
         inkscape:connector-curvature="0" />
      <path
         d="m 190,552 h 3 v 10 l -11,27 -1,8 9,4 13,1 -2,-12 9,-4 v -8 l -6,-8 1,-4 h 5 l -3,-9 3,-2 -6,-7 3,-6 -5,-5 8,-4 -10,-24 -5,-9 2,-6 -1,-8 5,-6 v -10 l 5,-3 3,-5 -2,-7 3,-19 -2,-2 -4,-3 -1,-7 5,-9 -4,-10 -5,-2 -3,-5 -5,-1 -4,-12 -7,7 -4,5 -11,-6 -12,11 -7,-2 -5,1 -10,-5 -5,9 1,5 8,9 2,8 -3,9 4,12 -10,10 10,14 -1,4 11,9 1,22 4,5 16,1 10,4 5,-2 -2,3 5,10 -6,2 8,10 -5,4 z"
         id="21218"
         inkscape:connector-curvature="0" />
      <path
         d="m 404,375 -1,-5 5,-8 10,2 5,-3 -9,-18 -4,-1 -7,-14 -7,-3 -2,-6 -4,-1 -1,15 -3,2 -1,-3 -6,-8 v -13 l -10,-10 -4,3 -9,-4 -14,21 -2,3 -5,-4 v -18 l -6,-12 -7,-4 -6,-11 -11,-4 -4,-9 -4,3 -23,12 -3,-6 h -7 l -6,-11 h -2 l 2,-6 -3,-5 -8,-1 -6,-8 -4,1 -10,9 1,6 -4,24 6,2 6,2 -2,15 2,3 18,6 -4,11 14,10 4,9 -2,6 6,12 -2,6 -6,4 -6,-1 -2,9 -4,16 3,8 h 5 l 9,5 6,-1 2,6 -4,1 -1,6 10,5 -1,12 -6,13 16,25 2,2 8,4 3,10 9,14 6,2 h 3 l 4,-9 h 12 l 4,-2 -2,-14 4,-4 9,-1 8,6 9,-5 v -5 l 3,-2 -4,-6 2,-11 -1,-3 8,-2 2,-8 1,-5 h 11 l 15,-9 -2,-20 3,-5 z"
         id="21219"
         inkscape:connector-curvature="0" />
      <path
         d="m 380,436 -2,8 -8,2 1,3 6,5 h 6 l 2,4 5,-1 h 4 l -3,12 -4,4 4,5 -2,6 2,3 16,3 4,-3 1,-4 9,-2 4,-1 4,-7 4,1 4,-4 -2,-7 8,-6 4,-2 11,4 3,-8 6,-4 7,3 10,-2 1,-4 13,-5 -3,-19 4,-11 12,-18 -4,-3 -7,2 -5,-8 3,-16 11,-1 3,-4 v -16 l 8,-8 15,-5 11,-2 9,9 8,-3 3,-11 -17,-15 -2,-10 -6,-2 -2,-4 h -3 l -7,2 -7,9 -8,3 1,-13 -13,-12 1,-7 -5,2 -24,8 -8,-1 -10,-11 -3,-8 -15,-4 -2,-5 -12,5 -10,13 -12,11 -7,15 2,2 5,4 -8,12 2,6 7,3 7,14 4,1 9,18 -5,3 -10,-2 -5,8 1,5 4,22 -3,5 2,20 -15,9 h -11 z"
         id="21220"
         inkscape:connector-curvature="0" />
      <path
         d="m 201,701 -10,-8 9,-11 -2,-9 -9,2 1,9 -9,4 h -4 v 7 l -5,10 -3,-1 v 5 l -3,-7 -4,3 -1,-5 -4,-1 -6,-9 h -7 l -8,6 2,7 5,3 -2,7 h 5 l 1,4 v 4 l 7,2 4,5 5,7 4,3 4,13 5,4 3,-3 7,3 v -12 l 5,3 7,15 v -22 -9 l 5,-5 v -8 l -1,-8 -1,-7 z m -43,-3 4,2 v -8 z"
         id="21221"
         inkscape:connector-curvature="0" />
      <path
         d="m 265,623 -2,-3 h -5 l -9,-7 -7,4 -2,8 5,3 2,-4 8,2 3,-3 z"
         id="21302"
         inkscape:connector-curvature="0" />
      <path
         d="m 240,625 -5,5 2,2 -13,5 2,4 10,3 3,-9 6,-5 h 1 l 8,2 3,1 3,-6 6,-1 -1,-3 h -7 l -3,3 -8,-2 -2,4 z"
         id="21303"
         inkscape:connector-curvature="0" />
      <path
         d="m 136,696 8,-6 h 7 l 6,9 4,1 1,5 4,-3 3,7 v -5 l 3,1 5,-10 -8,-6 1,-17 -7,-6 v -7 l -4,-3 2,-3 -3,-1 -1,-7 -9,-1 -4,1 1,4 -9,1 -1,4 -6,-4 -2,1 -4,7 7,9 v 21 l 2,4 z m 22,2 4,-6 v 8 z"
         id="21341"
         inkscape:connector-curvature="0" />
      <path
         d="m 145,614 -4,-1 1,-5 -2,-5 -2,2 -6,-3 -4,-11 -3,2 -6,1 -6,10 h -6 l -3,11 11,15 7,-4 2,1 -3,10 4,6 h 8 l 3,7 9,-1 -1,-4 4,-1 v -15 l -8,-4 2,-5 -3,-6 h 3 v 3 z"
         id="21361"
         inkscape:connector-curvature="0" />
      <path
         d="m 121,637 3,-10 -2,-1 -7,4 -11,-15 h -1 l -8,3 -7,8 -7,1 -2,12 5,-1 1,3 -10,27 9,7 4,-7 -2,-4 14,-4 1,-10 11,-15 z"
         id="21362"
         inkscape:connector-curvature="0" />
      <path
         d="m 174,610 2,1 2,8 6,1 v -10 l -7,-8 h 3 l -1,-4 -5,1 -8,-13 -5,2 -2,8 v 12 l -1,1 10,8 3,-7 z"
         id="21381"
         inkscape:connector-curvature="0" />
      <path
         d="m 198,673 -3,-9 -12,-3 v 1 l -13,10 -1,17 8,6 v -7 h 4 l 9,-4 -1,-9 z"
         id="21382"
         inkscape:connector-curvature="0" />
      <path
         d="m 190,623 1,23 -8,4 v 11 l 12,3 1,-4 9,-8 1,-9 -8,-1 1,-11 -5,-2 z"
         id="21383"
         inkscape:connector-curvature="0" />
      <path
         d="m 162,579 7,-1 -1,-7 -6,-3 1,-5 20,-9 3,2 4,-4 -6,-8 5,-4 -8,-10 6,-2 -5,-10 2,-3 -5,2 -10,-4 -16,-1 -4,-5 -1,-22 -11,-9 1,-4 -10,-14 10,-10 -4,-12 3,-9 -2,-8 -8,-9 -4,7 -5,-10 -3,-5 -6,2 -5,-3 -5,1 -9,1 -7,-4 -3,1 -4,-5 h -5 l -5,-4 -10,5 -2,3 -4,3 h -7 l -3,6 1,26 -3,3 -12,13 4,7 -9,10 -2,4 3,6 -2,3 7,10 10,-3 4,4 -2,3 -2,3 3,4 v 13 l -3,10 3,7 7,-3 3,8 4,-1 4,-12 h 5 l 4,14 8,2 1,7 1,4 -5,3 -3,10 7,10 8,2 1,12 -2,6 -3,9 15,16 8,-3 h 1 l 3,-11 h 6 l 6,-10 6,-1 3,-2 4,-13 5,-3 -2,-3 6,2 11,-2 v 5 z"
         id="21401"
         inkscape:connector-curvature="0" />
      <path
         d="m 181,597 1,-8 11,-27 v -10 h -3 l -4,4 -3,-2 -20,9 -1,5 6,3 1,7 -7,1 4,7 8,13 5,-1 1,4 h -3 l 7,8 z"
         id="21403"
         inkscape:connector-curvature="0" />
      <path
         d="m 166,586 -4,-7 -10,-2 v -5 l -11,2 -6,-2 2,3 -5,3 -4,13 4,11 6,3 2,-2 2,5 h 17 v -12 l 2,-8 z"
         id="21404"
         inkscape:connector-curvature="0" />
      <path
         d="m 208,606 2,-20 -9,4 2,12 v 3 z"
         id="21421"
         inkscape:connector-curvature="0" />
      <path
         d="m 345,599 h 5 l 1,-3 -2,-6 -5,-1 v -6 l -15,4 v 1 l -2,7 -3,1 1,8 5,1 v -1 l 2,-3 z"
         id="21501"
         inkscape:connector-curvature="0" />
      <path
         d="m 331,575 1,-7 3,5 h 5 l 1,-4 11,-3 v -5 l -6,-1 3,-3 -5,-4 -11,-1 -9,1 v 4 l 2,7 5,2 -4,6 z"
         id="21502"
         inkscape:connector-curvature="0" />
      <path
         d="m 387,574 2,-2 -3,-9 h 8 l 6,-9 3,1 3,1 2,-5 -4,-3 -8,-1 1,-15 h -4 l 3,-3 -5,-2 v 5 l -9,-4 -8,1 4,2 -1,5 3,4 -16,19 7,4 v 13 l 1,3 8,-10 z"
         id="21503"
         inkscape:connector-curvature="0" />
      <path
         d="m 391,527 5,2 -3,3 h 4 l -1,15 8,1 v -2 l 5,-1 1,-8 7,-5 4,6 1,-5 h 3 l -2,-2 h 5 l 4,-4 -5,-11 -16,-14 5,-3 3,-6 -10,2 2,-8 -4,3 -16,-3 -2,-3 -1,-1 -13,5 -3,17 5,10 4,1 -13,13 6,3 v -3 l 8,-1 9,4 z"
         id="21504"
         inkscape:connector-curvature="0" />
      <path
         d="m 462,577 3,-9 3,-1 v -6 l 10,-8 -8,-11 -20,-15 h -3 l -5,5 -4,-5 h -6 l -4,4 h -5 l 2,2 h -3 l -1,5 -4,-6 -7,5 -1,8 -5,1 v 2 l 4,3 -2,5 -3,-1 -3,-1 -6,9 h -8 l 3,9 -2,2 -1,5 -4,1 1,5 h 3 l 9,-9 4,4 10,5 4,-3 8,1 5,-9 9,-2 5,2 5,-3 3,3 4,-2 3,9 z"
         id="21505"
         inkscape:connector-curvature="0" />
      <path
         d="m 505,527 -1,-5 11,-3 12,3 2,-10 -6,-12 3,-4 -11,-4 -16,-3 -4,4 -19,9 -4,-3 -5,-3 -3,-13 11,-5 3,-7 15,-18 11,-6 v -4 l -6,-4 -13,5 -1,4 -10,2 -7,-3 -6,4 -3,8 -11,-4 -4,2 -8,6 2,7 -4,4 -4,-1 -4,7 -4,1 -9,2 -1,4 -2,8 10,-2 -3,6 -5,3 16,14 5,11 h 6 l 4,5 5,-5 h 3 l 20,15 1,-1 23,-4 9,-7 z"
         id="21506"
         inkscape:connector-curvature="0" />
      <path
         d="m 526,496 9,-10 -1,-7 -5,-4 4,-7 -5,-2 -11,-5 -9,-14 h -4 l -11,6 -15,18 -3,7 -11,5 3,13 5,3 4,3 19,-9 4,-4 16,3 z"
         id="21507"
         inkscape:connector-curvature="0" />
      <path
         d="m 435,607 3,-1 v -4 l 3,-3 -4,-14 3,-2 v -9 l -5,-2 -9,2 -5,9 -8,-1 -4,3 -10,-5 -5,6 -3,-3 -2,4 -3,-1 -6,5 -1,2 1,3 13,-4 3,4 v 7 l 6,-1 2,3 5,1 12,8 8,3 7,-6 z"
         id="21521"
         inkscape:connector-curvature="0" />
      <path
         d="m 245,190 3,13 -5,13 -2,3 11,4 5,-5 4,2 5,6 17,-7 6,2 12,-2 13,6 4,-6 -1,-4 6,-3 h 4 l 1,-6 -11,-8 5,-15 1,-21 3,-1 -1,-4 4,-8 -3,-4 8,-17 2,-3 -7,-3 4,-9 2,-8 -8,-17 -12,-7 -10,-4 -7,8 -7,1 1,-4 -3,-1 3,-4 -3,-4 -2,9 -13,2 3,8 -6,13 -2,4 -4,-1 -6,-1 -5,4 10,18 h 7 l 4,3 6,8 -14,20 -1,6 -3,2 -6,13 -14,5 v 3 z"
         id="21604"
         inkscape:connector-curvature="0" />
    </defs>
  </defs>
  <sodipodi:namedview
     inkscape:document-rotation="0"
     inkscape:current-layer="svg2"
     inkscape:window-maximized="0"
     inkscape:window-y="6"
     inkscape:window-x="868"
     inkscape:cy="383.8096"
     inkscape:cx="352.51584"
     inkscape:zoom="0.70710678"
     showgrid="false"
     id="namedview271"
     inkscape:window-height="1040"
     inkscape:window-width="1092"
     inkscape:pageshadow="2"
     inkscape:pageopacity="0"
     guidetolerance="10"
     gridtolerance="10"
     objecttolerance="10"
     borderopacity="1"
     bordercolor="#666666"
     pagecolor="#ffffff" />
  <title
     id="title4">岐阜県行政区画地図</title>
  <rect
     x="-12"
     y="-13"
     width="680"
     height="800"
     id="rect59"
     style="fill:#ffffff" />
  <rect
     x="-2"
     y="-3"
     width="660"
     height="780"
     id="rect61"
     style="fill:#eeeeee" />
  <a
     transform="translate(-2,-3)"
     id="a65"
     style="stroke:#000000;stroke-width:0.2;stroke-linejoin:round">
    <use
       height="852"
       width="660"
       y="0"
       x="0"
       style="fill:#cccccc"
       id="use67"
       xlink:href="#16000" />
  </a>
  <a
     transform="translate(-2,-3)"
     id="a69"
     style="stroke:#000000;stroke-width:0.2;stroke-linejoin:round">
    <use
       height="852"
       width="660"
       y="0"
       x="0"
       style="fill:#cccccc"
       id="use71"
       xlink:href="#17000" />
  </a>
  <a
     transform="translate(-2,-3)"
     id="a73"
     style="stroke:#000000;stroke-width:0.2;stroke-linejoin:round">
    <use
       height="852"
       width="660"
       y="0"
       x="0"
       style="fill:#cccccc"
       id="use75"
       xlink:href="#18000" />
  </a>
  <a
     transform="translate(-2,-3)"
     id="a77"
     style="stroke:#000000;stroke-width:0.2;stroke-linejoin:round">
    <use
       height="852"
       width="660"
       y="0"
       x="0"
       style="fill:#cccccc"
       id="use79"
       xlink:href="#20000" />
  </a>
  <a
     transform="translate(-2,-3)"
     id="a81"
     style="stroke:#000000;stroke-width:0.2;stroke-linejoin:round">
    <use
       height="852"
       width="660"
       y="0"
       x="0"
       style="fill:#cccccc"
       id="use83"
       xlink:href="#23000" />
  </a>
  <a
     transform="translate(-2,-3)"
     id="a85"
     style="stroke:#000000;stroke-width:0.2;stroke-linejoin:round">
    <use
       height="852"
       width="660"
       y="0"
       x="0"
       style="fill:#cccccc"
       id="use87"
       xlink:href="#24000" />
  </a>
  <a
     transform="translate(-2,-3)"
     id="a89"
     style="stroke:#000000;stroke-width:0.2;stroke-linejoin:round">
    <use
       height="852"
       width="660"
       y="0"
       x="0"
       style="fill:#cccccc"
       id="use91"
       xlink:href="#25000" />
  </a>
  <a
     transform="translate(-2,-3)"
     id="a93"
     style="stroke:#000000;stroke-width:0.2;stroke-linejoin:round;fill:#f6bad3;fill-opacity:1">
    <use
       height="852"
       width="660"
       y="0"
       x="0"
       style="fill:#f6bad3;fill-opacity:1"
       id="use95"
       xlink:href="#21201" />
  </a>
  <a
     transform="translate(-2,-3)"
     id="a97"
     style="stroke:#000000;stroke-width:0.2;stroke-linejoin:round;fill:#f6bad3;fill-opacity:1">
    <use
       height="852"
       width="660"
       y="0"
       x="0"
       style="fill:#f6bad3;fill-opacity:1"
       id="use99"
       xlink:href="#21202" />
  </a>
  <a
     transform="translate(-2,-3)"
     id="a101"
     style="stroke:#000000;stroke-width:0.2;stroke-linejoin:round;fill:#f6bad3;fill-opacity:1">
    <use
       height="852"
       width="660"
       y="0"
       x="0"
       style="fill:#f6bad3;fill-opacity:1"
       id="use103"
       xlink:href="#21203" />
  </a>
  <a
     transform="translate(-2,-3)"
     id="a105"
     style="stroke:#000000;stroke-width:0.2;stroke-linejoin:round;fill:#f6bad3;fill-opacity:1">
    <use
       height="852"
       width="660"
       y="0"
       x="0"
       style="fill:#f6bad3;fill-opacity:1"
       id="use107"
       xlink:href="#21204" />
  </a>
  <a
     transform="translate(-2,-3)"
     id="a109"
     style="stroke:#000000;stroke-width:0.2;stroke-linejoin:round;fill:#f6bad3;fill-opacity:1">
    <use
       height="852"
       width="660"
       y="0"
       x="0"
       style="fill:#f6bad3;fill-opacity:1"
       id="use111"
       xlink:href="#21205" />
  </a>
  <a
     transform="translate(-2,-3)"
     id="a113"
     style="stroke:#000000;stroke-width:0.2;stroke-linejoin:round;fill:#f25796;fill-opacity:1">
    <use
       height="852"
       width="660"
       y="0"
       x="0"
       style="fill:#f25796;fill-opacity:1"
       id="use115"
       xlink:href="#21206" />
  </a>
  <a
     transform="translate(-2,-3)"
     id="a117"
     style="stroke:#000000;stroke-width:0.2;stroke-linejoin:round">
    <use
       height="852"
       width="660"
       y="0"
       x="0"
       style="fill:#f6bad3"
       id="use119"
       xlink:href="#21207" />
  </a>
  <a
     transform="translate(-2,-3)"
     id="a121"
     style="stroke:#000000;stroke-width:0.2;stroke-linejoin:round">
    <use
       height="852"
       width="660"
       y="0"
       x="0"
       style="fill:#f6bad3"
       id="use123"
       xlink:href="#21208" />
  </a>
  <a
     transform="translate(-2,-3)"
     id="a125"
     style="stroke:#000000;stroke-width:0.2;stroke-linejoin:round">
    <use
       height="852"
       width="660"
       y="0"
       x="0"
       style="fill:#f6bad3"
       id="use127"
       xlink:href="#21209" />
  </a>
  <a
     transform="translate(-2,-3)"
     id="a129"
     style="stroke:#000000;stroke-width:0.2;stroke-linejoin:round">
    <use
       height="852"
       width="660"
       y="0"
       x="0"
       style="fill:#f6bad3"
       id="use131"
       xlink:href="#21210" />
  </a>
  <a
     transform="translate(-2,-3)"
     id="a133"
     style="stroke:#000000;stroke-width:0.2;stroke-linejoin:round">
    <use
       height="852"
       width="660"
       y="0"
       x="0"
       style="fill:#f6bad3"
       id="use135"
       xlink:href="#21211" />
  </a>
  <a
     transform="translate(-2,-3)"
     id="a137"
     style="stroke:#000000;stroke-width:0.2;stroke-linejoin:round">
    <use
       height="852"
       width="660"
       y="0"
       x="0"
       style="fill:#f6bad3"
       id="use139"
       xlink:href="#21212" />
  </a>
  <a
     transform="translate(-2,-3)"
     id="a141"
     style="stroke:#000000;stroke-width:0.2;stroke-linejoin:round">
    <use
       height="852"
       width="660"
       y="0"
       x="0"
       style="fill:#f6bad3"
       id="use143"
       xlink:href="#21213" />
  </a>
  <a
     transform="translate(-2,-3)"
     id="a145"
     style="stroke:#000000;stroke-width:0.2;stroke-linejoin:round">
    <use
       height="852"
       width="660"
       y="0"
       x="0"
       style="fill:#f6bad3"
       id="use147"
       xlink:href="#21214" />
  </a>
  <a
     transform="translate(-2,-3)"
     id="a149"
     style="stroke:#000000;stroke-width:0.2;stroke-linejoin:round">
    <use
       height="852"
       width="660"
       y="0"
       x="0"
       style="fill:#f6bad3"
       id="use151"
       xlink:href="#21215" />
  </a>
  <a
     transform="translate(-2,-3)"
     id="a153"
     style="stroke:#000000;stroke-width:0.2;stroke-linejoin:round">
    <use
       height="852"
       width="660"
       y="0"
       x="0"
       style="fill:#f6bad3"
       id="use155"
       xlink:href="#21216" />
  </a>
  <a
     transform="translate(-2,-3)"
     id="a157"
     style="stroke:#000000;stroke-width:0.2;stroke-linejoin:round">
    <use
       height="852"
       width="660"
       y="0"
       x="0"
       style="fill:#f6bad3"
       id="use159"
       xlink:href="#21217" />
  </a>
  <a
     transform="translate(-2,-3)"
     id="a161"
     style="stroke:#000000;stroke-width:0.2;stroke-linejoin:round">
    <use
       height="852"
       width="660"
       y="0"
       x="0"
       style="fill:#f6bad3"
       id="use163"
       xlink:href="#21218" />
  </a>
  <a
     transform="translate(-2,-3)"
     id="a165"
     style="stroke:#000000;stroke-width:0.2;stroke-linejoin:round">
    <use
       height="852"
       width="660"
       y="0"
       x="0"
       style="fill:#f6bad3"
       id="use167"
       xlink:href="#21219" />
  </a>
  <a
     transform="translate(-2,-3)"
     id="a169"
     style="stroke:#000000;stroke-width:0.2;stroke-linejoin:round">
    <use
       height="852"
       width="660"
       y="0"
       x="0"
       style="fill:#f6bad3"
       id="use171"
       xlink:href="#21220" />
  </a>
  <a
     transform="translate(-2,-3)"
     id="a173"
     style="stroke:#000000;stroke-width:0.2;stroke-linejoin:round">
    <use
       height="852"
       width="660"
       y="0"
       x="0"
       style="fill:#f6bad3"
       id="use175"
       xlink:href="#21221" />
  </a>
  <a
     transform="translate(-2,-3)"
     id="a177"
     style="stroke:#000000;stroke-width:0.2;stroke-linejoin:round">
    <use
       height="852"
       width="660"
       y="0"
       x="0"
       style="fill:#ece3b4"
       id="use179"
       xlink:href="#21302" />
  </a>
  <a
     transform="translate(-2,-3)"
     id="a181"
     style="stroke:#000000;stroke-width:0.2;stroke-linejoin:round">
    <use
       height="852"
       width="660"
       y="0"
       x="0"
       style="fill:#ece3b4"
       id="use183"
       xlink:href="#21303" />
  </a>
  <a
     transform="translate(-2,-3)"
     id="a185"
     style="stroke:#000000;stroke-width:0.2;stroke-linejoin:round">
    <use
       height="852"
       width="660"
       y="0"
       x="0"
       style="fill:#ece3b4"
       id="use187"
       xlink:href="#21341" />
  </a>
  <a
     transform="translate(-2,-3)"
     id="a189"
     style="stroke:#000000;stroke-width:0.2;stroke-linejoin:round">
    <use
       height="852"
       width="660"
       y="0"
       x="0"
       style="fill:#ece3b4"
       id="use191"
       xlink:href="#21361" />
  </a>
  <a
     transform="translate(-2,-3)"
     id="a193"
     style="stroke:#000000;stroke-width:0.2;stroke-linejoin:round">
    <use
       height="852"
       width="660"
       y="0"
       x="0"
       style="fill:#ece3b4"
       id="use195"
       xlink:href="#21362" />
  </a>
  <a
     transform="translate(-2,-3)"
     id="a197"
     style="stroke:#000000;stroke-width:0.2;stroke-linejoin:round">
    <use
       height="852"
       width="660"
       y="0"
       x="0"
       style="fill:#ece3b4"
       id="use199"
       xlink:href="#21381" />
  </a>
  <a
     transform="translate(-2,-3)"
     id="a201"
     style="stroke:#000000;stroke-width:0.2;stroke-linejoin:round">
    <use
       height="852"
       width="660"
       y="0"
       x="0"
       style="fill:#ece3b4"
       id="use203"
       xlink:href="#21382" />
  </a>
  <a
     transform="translate(-2,-3)"
     id="a205"
     style="stroke:#000000;stroke-width:0.2;stroke-linejoin:round">
    <use
       height="852"
       width="660"
       y="0"
       x="0"
       style="fill:#ece3b4"
       id="use207"
       xlink:href="#21383" />
  </a>
  <a
     transform="translate(-2,-3)"
     id="a209"
     style="stroke:#000000;stroke-width:0.2;stroke-linejoin:round">
    <use
       height="852"
       width="660"
       y="0"
       x="0"
       style="fill:#ece3b4"
       id="use211"
       xlink:href="#21401" />
  </a>
  <a
     transform="translate(-2,-3)"
     id="a213"
     style="stroke:#000000;stroke-width:0.2;stroke-linejoin:round">
    <use
       height="852"
       width="660"
       y="0"
       x="0"
       style="fill:#ece3b4"
       id="use215"
       xlink:href="#21403" />
  </a>
  <a
     transform="translate(-2,-3)"
     id="a217"
     style="stroke:#000000;stroke-width:0.2;stroke-linejoin:round">
    <use
       height="852"
       width="660"
       y="0"
       x="0"
       style="fill:#ece3b4"
       id="use219"
       xlink:href="#21404" />
  </a>
  <a
     transform="translate(-2,-3)"
     id="a221"
     style="stroke:#000000;stroke-width:0.2;stroke-linejoin:round">
    <use
       height="852"
       width="660"
       y="0"
       x="0"
       style="fill:#ece3b4"
       id="use223"
       xlink:href="#21421" />
  </a>
  <a
     transform="translate(-2,-3)"
     id="a225"
     style="stroke:#000000;stroke-width:0.2;stroke-linejoin:round">
    <use
       height="852"
       width="660"
       y="0"
       x="0"
       style="fill:#ece3b4"
       id="use227"
       xlink:href="#21501" />
  </a>
  <a
     transform="translate(-2,-3)"
     id="a229"
     style="stroke:#000000;stroke-width:0.2;stroke-linejoin:round">
    <use
       height="852"
       width="660"
       y="0"
       x="0"
       style="fill:#ece3b4"
       id="use231"
       xlink:href="#21502" />
  </a>
  <a
     transform="translate(-2,-3)"
     id="a233"
     style="stroke:#000000;stroke-width:0.2;stroke-linejoin:round">
    <use
       height="852"
       width="660"
       y="0"
       x="0"
       style="fill:#ece3b4"
       id="use235"
       xlink:href="#21503" />
  </a>
  <a
     transform="translate(-2,-3)"
     id="a237"
     style="stroke:#000000;stroke-width:0.2;stroke-linejoin:round">
    <use
       height="852"
       width="660"
       y="0"
       x="0"
       style="fill:#ece3b4"
       id="use239"
       xlink:href="#21504" />
  </a>
  <a
     transform="translate(-2,-3)"
     id="a241"
     style="stroke:#000000;stroke-width:0.2;stroke-linejoin:round">
    <use
       height="852"
       width="660"
       y="0"
       x="0"
       style="fill:#ece3b4"
       id="use243"
       xlink:href="#21505" />
  </a>
  <a
     transform="translate(-2,-3)"
     id="a245"
     style="stroke:#000000;stroke-width:0.2;stroke-linejoin:round">
    <use
       height="852"
       width="660"
       y="0"
       x="0"
       style="fill:#ece3b4"
       id="use247"
       xlink:href="#21506" />
  </a>
  <a
     transform="translate(-2,-3)"
     id="a249"
     style="stroke:#000000;stroke-width:0.2;stroke-linejoin:round">
    <use
       height="852"
       width="660"
       y="0"
       x="0"
       style="fill:#b6f2dc"
       id="use251"
       xlink:href="#21507" />
  </a>
  <a
     transform="translate(-2,-3)"
     id="a253"
     style="stroke:#000000;stroke-width:0.2;stroke-linejoin:round">
    <use
       height="852"
       width="660"
       y="0"
       x="0"
       style="fill:#ece3b4"
       id="use255"
       xlink:href="#21521" />
  </a>
  <a
     transform="translate(-2,-3)"
     id="a257"
     style="stroke:#000000;stroke-width:0.2;stroke-linejoin:round">
    <use
       height="852"
       width="660"
       y="0"
       x="0"
       style="fill:#b6f2dc"
       id="use259"
       xlink:href="#21604" />
  </a>
  <path
     d="m 551,1 -7,9 2,2 2,-3 1,2 -6,4 3,6 -3,-2 -2,6 v -9 l -7,7 11,-21 z m -280,76 4,12 -3,7 1,-7 -1,-9 -3,3 z m -15,-62 3,-1 -4,15 z m -24,19 3,4 -5,4 2,3 -5,-3 7,-3 z m -36,-23 1,11 -3,-4 z m -43,105 -2,2 1,-3 -3,-1 8,-1 -3,1 -1,9 -9,5 8,-4 z M 99,64 93,75 v -5 z m -105,67 12,-12 2,-9 2,6 -5,10 -4,-2 -2,8 -2,1 1,-5 z m 67,-56 9,5 -8,2 -4,-6 z m 70,258 4,-5 -2,-6 5,-2 2,2 -6,1 4,7 -2,-2 -5,6 -6,-3 z m 10,29 3,-1 4,5 11,1 -8,1 v 5 l -1,-5 -4,-2 -1,2 v -4 l -3,-1 -3,11 v -5 h -5 l 6,-3 z m 63,-26 2,2 -3,5 h 13 v -4 l 1,4 7,-1 -2,3 11,-3 1,3 4,-1 1,-6 1,4 7,1 -12,3 2,12 -5,-13 -5,2 -2,8 2,-8 h -5 v 3 l -2,-5 -1,5 -8,3 2,3 h -9 l -3,-1 13,-4 3,-6 -12,2 -5,-4 -11,-2 h 11 z M 52,190 l 6,1 -6,-1 v 4 z m 610,15 -3,2 -4,13 3,-14 4,-2 z m 0,-7 -4,-1 -5,-6 -2,3 1,-4 -2,-2 v -3 l 8,11 4,1 z m -57,184 9,-4 3,-7 2,1 v 4 l -8,6 -10,2 -3,-3 z m -94,-12 2,-2 h -5 l 6,-1 -1,-5 4,8 4,1 6,-5 -5,8 -7,-3 -5,4 z m 65,-101 -8,-8 v -5 l 3,7 7,-4 -6,4 z m -262,-65 4,1 6,-10 -2,7 6,2 -6,-2 -4,4 -2,-2 -6,2 6,2 2,8 h 3 l -2,1 6,11 -1,5 6,-3 -3,5 h -6 l -1,11 -2,-3 4,-13 -6,-11 -13,14 v -3 l -9,4 15,-8 5,-9 -8,-13 h -3 l 3,-1 -2,-5 5,6 z m 221,27 6,5 h -3 l 1,6 -3,-9 h -5 z m 9,377 -4,-6 3,-2 -3,-4 10,9 -6,-4 z m -103,-9 -1,4 -4,-3 z m -17,-30 h 7 l 2,-5 -2,5 8,1 4,-2 3,3 5,-2 2,9 -3,-9 -3,3 -4,-4 -5,4 -4,-3 -10,3 z m 113,134 5,5 11,-10 -8,10 -8,-1 1,6 -2,-6 h 4 z m -188,-554 4,-1 3,-12 5,2 -7,13 6,2 2,8 -3,-1 v -6 h -5 z m 67,242 -2,-4 4,-5 1,2 -3,2 5,8 h 6 l 1,-7 h 2 -2 v 9 l -8,-3 1,8 -2,-4 -5,5 4,6 -8,-4 1,-5 6,-2 -2,-3 z M 107,700 v -3 l 3,1 h -3 l 1,3 z m 7,-91 -1,2 -3,-3 z m -13,-114 1,5 -3,2 z m 291,78 12,-6 5,-1 1,4 6,-3 -6,4 -6,-3 z m -96,-463 3,-9 h -3 l 3,-1 -2,10 h 4 z m 2,30 -6,10 2,4 -3,-6 4,-3 2,-9 z m 44,498 3,-3 -1,4 6,3 -1,2 -3,-1 -3,4 z m 42,124 1,1 -4,6 -4,-5 5,2 z M -6,615 h 7 l 15,14 v 12 l -11,23 2,3 -13,13 z"
     id="path261"
     inkscape:connector-curvature="0"
     style="fill:#eeeeee;stroke:#000000;stroke-width:0.2;stroke-linejoin:round" />
  <g
     transform="translate(-2,-3)"
     id="g4029">
    <rect
       style="fill:#ffffff;fill-opacity:1;stroke:#000000;stroke-width:0;stroke-linejoin:miter;stroke-miterlimit:4;stroke-opacity:1;stroke-dasharray:none;stroke-dashoffset:15"
       id="rect3252"
       width="266"
       height="58"
       x="10"
       y="11" />
    <g
       id="g4025"
       transform="matrix(1,0,0,0.83561644,-383,-642.26027)">
      <rect
         x="401"
         y="828"
         width="251"
         height="16"
         id="rect267"
         style="fill:#000000" />
      <text
         x="526"
         y="818"
         font-size="40"
         id="text269"
         style="font-size:40px;line-height:0%;font-family:Helvetica;text-anchor:middle;fill:#000000">50km</text>
    </g>
  </g>
</svg>
