<svg width="96" height="96" xmlns="http://www.w3.org/2000/svg" xmlns:xlink="http://www.w3.org/1999/xlink" xml:space="preserve" overflow="hidden"><defs><clipPath id="clip0"><rect x="204" y="164" width="96" height="96"/></clipPath></defs><g clip-path="url(#clip0)" transform="translate(-204 -164)"><path d="M249.5 178C249.5 182.418 245.918 186 241.5 186 237.082 186 233.5 182.418 233.5 178 233.5 173.582 237.082 170 241.5 170 245.918 170 249.5 173.582 249.5 178Z"/><path d="M268.6 233.3C265.9 242.9 257 250 246.5 250 233.8 250 223.5 239.7 223.5 227 223.5 226.5 223.5 226.1 223.5 225.6L221.1 217.8C220.1 220.7 219.5 223.7 219.5 226.9 219.5 241.8 231.6 253.9 246.5 253.9 257.5 253.9 267 247.3 271.2 237.8L268.6 233.3Z"/><path d="M284 236 272 215C271.3 213.8 270 213 268.5 213L252.4 213 250.4 194.6C249.6 190.2 245.5 187.3 241.1 188.1 240.1 188.3 239.2 188.6 238.4 189.1L222.5 198.5C220.9 199.4 220.2 201.4 220.7 203.1L225.7 219.1C226.2 220.8 227.8 221.9 229.5 221.9 229.9 221.9 230.3 221.8 230.7 221.7 232.8 221 234 218.8 233.3 216.7L229.2 203.7 235.1 200.2 237.6 214.3C238.3 218.2 241.7 220.9 245.5 220.9L245.5 220.9 266.2 220.9 277 240C277.7 241.3 279.1 242 280.5 242 281.2 242 281.9 241.8 282.5 241.5 284.4 240.4 285.1 237.9 284 236Z"/></g></svg>