<svg width="429" height="417" xmlns="http://www.w3.org/2000/svg" xmlns:xlink="http://www.w3.org/1999/xlink" xml:space="preserve" overflow="hidden"><defs><clipPath id="clip0"><rect x="220" y="520" width="429" height="417"/></clipPath><clipPath id="clip1"><rect x="367" y="618" width="138" height="135"/></clipPath><clipPath id="clip2"><rect x="367" y="618" width="138" height="135"/></clipPath><clipPath id="clip3"><rect x="367" y="618" width="138" height="135"/></clipPath></defs><g clip-path="url(#clip0)" transform="translate(-220 -520)"><path d="M212.587 56.4687C232.217 56.3493 249.118 70.2979 252.724 89.5942 252.724 89.6246 252.763 89.642 252.789 89.6202 260.085 84.0893 268.983 81.083 278.139 81.0544 300.739 81.126 319.041 99.4332 319.105 122.033 319.127 125.193 318.721 128.34 317.897 131.39 317.892 131.413 317.906 131.437 317.93 131.442 317.936 131.443 317.943 131.443 317.949 131.442 321.175 130.595 324.501 130.189 327.836 130.234 350.465 130.562 368.545 149.173 368.217 171.803 367.893 194.178 349.679 212.155 327.302 212.188 321.672 212.035 316.125 210.791 310.969 208.526 310.95 208.516 310.926 208.524 310.916 208.543 310.913 208.55 310.912 208.558 310.913 208.565L310.913 211.328C311.09 232.933 294.673 251.065 273.157 253.028 259.099 254.181 245.464 247.883 237.23 236.43 237.216 236.413 237.191 236.411 237.174 236.424 237.166 236.431 237.161 236.441 237.16 236.452 235.025 259.026 214.994 275.596 192.42 273.461 171.364 271.47 155.266 253.81 155.228 232.66 155.225 231.181 155.356 229.706 155.619 228.251 155.629 228.234 155.623 228.213 155.606 228.203 155.589 228.194 155.568 228.199 155.558 228.216 137.794 241.993 112.224 238.761 98.4472 220.996 93.7168 214.897 90.8183 207.579 90.0894 199.895L89.6767 199.895C67.0449 199.862 48.7243 181.489 48.7573 158.857 48.7899 136.479 66.7673 118.266 89.1424 117.941 92.4771 117.895 95.8031 118.302 99.0288 119.149 99.0544 119.154 99.0801 119.138 99.0853 119.112 99.0866 119.106 99.0866 119.099 99.0853 119.093 98.359 116.319 97.9555 113.471 97.8821 110.605 97.333 88.0613 115.163 69.3406 137.707 68.7915 151.788 68.4488 165.05 75.3871 172.799 87.1486 172.809 87.1678 172.832 87.1756 172.851 87.1656 172.859 87.1617 172.864 87.156 172.868 87.1486 177.773 69.2007 193.983 56.6799 212.587 56.4687M212.587 47.7812C195.354 47.8981 179.394 56.8753 170.344 71.5415 161.512 64.1468 150.363 60.088 138.844 60.0741 111.618 60.1079 89.483 82.0304 89.1859 109.254 61.7551 109.549 39.7572 132.025 40.0524 159.456 40.3162 183.978 58.436 204.637 82.7137 208.096 89.3422 234.542 116.155 250.608 142.601 243.979 144.264 243.563 145.904 243.06 147.514 242.472 152.962 269.398 179.206 286.808 206.131 281.359 221.866 278.175 235.097 267.592 241.66 252.941 249.929 258.786 259.817 261.902 269.942 261.854 294.329 261.825 315.096 244.117 318.979 220.041 321.72 220.586 324.507 220.865 327.302 220.875 354.731 220.793 376.901 198.49 376.819 171.06 376.737 143.938 354.913 121.896 327.792 121.547 327.495 94.325 305.363 72.4034 278.139 72.3669 271.128 72.3786 264.196 73.8446 257.78 76.6715 249.727 58.9755 232.029 47.6618 212.587 47.7812Z" transform="matrix(1.02878 0 0 1 220 520)"/><path d="M125.969 282.422C135.565 282.422 143.344 290.201 143.344 299.797 143.344 309.393 135.565 317.172 125.969 317.172 116.373 317.172 108.594 309.393 108.594 299.797 108.608 290.207 116.379 282.436 125.969 282.422M125.969 273.734C111.575 273.734 99.9062 285.403 99.9062 299.797 99.9062 314.191 111.575 325.859 125.969 325.859 140.363 325.859 152.031 314.191 152.031 299.797 152.031 285.403 140.363 273.734 125.969 273.734Z" transform="matrix(1.02878 0 0 1 220 520)"/><path d="M73.8437 334.56C79.8412 334.56 84.7031 339.422 84.7031 345.419 84.7031 351.417 79.8412 356.279 73.8437 356.279 67.8463 356.279 62.9844 351.417 62.9844 345.419 62.9844 339.422 67.8463 334.56 73.8437 334.56M73.8437 325.872C63.0482 325.872 54.2969 334.624 54.2969 345.419 54.2969 356.215 63.0482 364.966 73.8437 364.966 84.6393 364.966 93.3906 356.215 93.3906 345.419 93.3906 334.624 84.6393 325.872 73.8437 325.872Z" transform="matrix(1.02878 0 0 1 220 520)"/><g clip-path="url(#clip1)"><g clip-path="url(#clip2)"><g clip-path="url(#clip3)"><path d="M63.5104 19.5417C63.5104 25.7089 58.511 30.7083 52.3438 30.7083 46.1766 30.7083 41.1771 25.7089 41.1771 19.5417 41.1771 13.3745 46.1766 8.375 52.3438 8.375 58.511 8.375 63.5104 13.3745 63.5104 19.5417Z" transform="matrix(1.02985 0 0 1 367 618)"/><path d="M90.1709 96.7313C86.4021 110.131 73.9792 120.042 59.3229 120.042 41.5959 120.042 27.2188 105.665 27.2188 87.9375 27.2188 87.2396 27.2188 86.6813 27.2188 85.9834L23.8688 75.0959C22.4729 79.1438 21.6354 83.3313 21.6354 87.798 21.6354 108.596 38.525 125.485 59.3229 125.485 74.6771 125.485 87.9375 116.273 93.8 103.013L90.1709 96.7313Z" transform="matrix(1.02985 0 0 1 367 618)"/><path d="M111.667 100.5 94.9167 71.1875C93.9396 69.5125 92.125 68.3959 90.0313 68.3959L67.5584 68.3959 64.7667 42.7125C63.65 36.5709 57.9271 32.5229 51.7854 33.6396 50.3896 33.9188 49.1334 34.3375 48.0167 35.0354L25.8229 48.1563C23.5896 49.4125 22.6125 52.2042 23.3104 54.5771L30.2896 76.9104C30.9875 79.2834 33.2208 80.8188 35.5938 80.8188 36.1521 80.8188 36.7104 80.6792 37.2688 80.5396 40.2 79.5625 41.875 76.4917 40.8979 73.5604L35.175 55.4146 43.4104 50.5292 46.9 70.2104C47.8771 75.6542 52.6229 79.423 57.9271 79.423L57.9271 79.423 86.8209 79.423 101.896 106.083C102.873 107.898 104.827 108.875 106.781 108.875 107.758 108.875 108.735 108.596 109.573 108.177 112.225 106.642 113.202 103.152 111.667 100.5Z" transform="matrix(1.02985 0 0 1 367 618)"/></g></g></g></g></svg>