<svg width="96" height="96" xmlns="http://www.w3.org/2000/svg" xmlns:xlink="http://www.w3.org/1999/xlink" xml:space="preserve" overflow="hidden"><defs><clipPath id="clip0"><rect x="488" y="303" width="96" height="96"/></clipPath></defs><g clip-path="url(#clip0)" transform="translate(-488 -303)"><path d="M572.22 315 571.78 315C570.773 315.027 569.978 315.863 570 316.87L570 323.13C569.978 324.137 570.773 324.973 571.78 325L572.22 325C573.227 324.973 574.022 324.137 574 323.13L574 316.87C574.022 315.863 573.227 315.027 572.22 315Z"/><path d="M500.22 315 499.78 315C498.773 315.027 497.978 315.863 498 316.87L498 323.13C497.978 324.137 498.773 324.973 499.78 325L500.22 325C501.227 324.973 502.022 324.137 502 323.13L502 316.87C502.022 315.863 501.227 315.027 500.22 315Z"/><path d="M575 318 575 322C576.105 322 577 321.105 577 320 577 318.895 576.105 318 575 318Z"/><path d="M497 322 497 318C495.895 318 495 318.895 495 320 495 321.105 495.895 322 497 322Z"/><path d="M567.22 312 566.78 312C565.71 312.116 564.924 313.057 565 314.13L565 318 507 318 507 314.13C507.076 313.057 506.29 312.116 505.22 312L504.78 312C503.71 312.116 502.924 313.057 503 314.13L503 325.87C502.924 326.943 503.71 327.884 504.78 328L505.22 328C506.29 327.884 507.076 326.943 507 325.87L507 322 512 322 512 337C512.005 338.424 512.767 339.738 514 340.45L528 348.7 528 358.47 513.83 367.64C512.689 368.377 512 369.642 512 371L512 390 520 390 520 373.18 528 368 544 368 552 373.18 552 390 560 390 560 371C560 369.642 559.311 368.377 558.17 367.64L544 358.47 544 348.7 558 340.45C559.233 339.738 559.995 338.424 560 337L560 322 565 322 565 325.87C564.924 326.943 565.71 327.884 566.78 328L567.22 328C568.29 327.884 569.076 326.943 569 325.87L569 314.13C569.076 313.057 568.29 312.116 567.22 312ZM552 334.71 539.61 342 532.39 342 520 334.71 520 322 552 322Z"/><path d="M544 331C544 335.418 540.418 339 536 339 531.582 339 528 335.418 528 331 528 326.582 531.582 323 536 323 540.418 323 544 326.582 544 331Z"/></g></svg>