<svg width="96" height="96" xmlns="http://www.w3.org/2000/svg" xmlns:xlink="http://www.w3.org/1999/xlink" xml:space="preserve" overflow="hidden"><defs><clipPath id="clip0"><rect x="342" y="157" width="96" height="96"/></clipPath></defs><g clip-path="url(#clip0)" transform="translate(-342 -157)"><path d="M427 233.55 414.5 221.05C412.868 219.419 410.538 218.697 408.27 219.12L403.8 214.7C407.832 209.491 410.013 203.087 410 196.5 410.054 179.876 396.622 166.356 379.998 166.302 363.375 166.248 349.855 179.68 349.8 196.303 349.746 212.927 363.178 226.447 379.802 226.502 386.451 226.523 392.921 224.343 398.2 220.3L402.62 224.72C402.18 227.004 402.903 229.357 404.55 231L417.05 243.5C419.784 246.234 424.216 246.234 426.95 243.5 429.684 240.766 429.684 236.334 426.95 233.6ZM380 221.5C366.193 221.5 355 210.307 355 196.5 355 182.693 366.193 171.5 380 171.5 393.807 171.5 405 182.693 405 196.5 405 210.307 393.807 221.5 380 221.5Z"/><path d="M394.5 192.79 383.5 192.79 383.5 181.79 377.5 181.79 377.5 192.79 366.5 192.79 366.5 198.79 377.5 198.79 377.5 209.79 383.5 209.79 383.5 198.79 394.5 198.79 394.5 192.79Z"/></g></svg>