<svg width="96" height="96" xmlns="http://www.w3.org/2000/svg" xmlns:xlink="http://www.w3.org/1999/xlink" xml:space="preserve" overflow="hidden"><defs><clipPath id="clip0"><rect x="626" y="163" width="96" height="96"/></clipPath></defs><g clip-path="url(#clip0)" transform="translate(-626 -163)"><path d="M675.44 251 675.44 242.33C675.475 240.956 674.823 239.654 673.7 238.86 671.201 236.92 668.306 235.555 665.22 234.86 662.904 234.165 660.507 233.778 658.09 233.71 655.684 233.704 653.292 234.076 651 234.81 647.958 235.628 645.086 236.983 642.52 238.81 641.436 239.635 640.797 240.918 640.79 242.28L640.79 251Z"/><path d="M666.76 222.67C666.76 227.458 662.878 231.34 658.09 231.34 653.302 231.34 649.42 227.458 649.42 222.67 649.42 217.882 653.302 214 658.09 214 662.878 214 666.76 217.882 666.76 222.67Z"/><path d="M705.27 172 664.17 172C662.832 172.011 661.754 173.102 661.76 174.44L661.76 206.56C661.743 207.891 662.809 208.983 664.14 209 664.143 209 664.147 209 664.15 209L671.75 209 671.75 219.09 680.92 209 705.22 209C706.557 208.995 707.635 207.907 707.63 206.57 707.63 206.567 707.63 206.563 707.63 206.56L707.68 174.47C707.708 173.134 706.647 172.028 705.31 172.001 705.297 172 705.284 172 705.27 172ZM691.27 181.39 692.82 179.84C693.091 179.622 693.488 179.666 693.706 179.938 693.888 180.166 693.89 180.49 693.71 180.72L692.16 182.27C692.043 182.386 691.885 182.451 691.72 182.45 691.553 182.449 691.392 182.385 691.27 182.27 691.065 182.023 691.077 181.661 691.3 181.43ZM684.1 176.59C684.056 176.245 684.301 175.93 684.646 175.886 684.991 175.842 685.306 176.086 685.35 176.432 685.357 176.484 685.357 176.537 685.35 176.59L685.35 178.77C685.394 179.115 685.149 179.43 684.804 179.474 684.459 179.518 684.144 179.274 684.1 178.928 684.093 178.876 684.093 178.823 684.1 178.77ZM675.76 179.72C675.993 179.477 676.38 179.469 676.622 179.702 676.628 179.708 676.634 179.714 676.64 179.72L678.19 181.27C678.429 181.515 678.429 181.905 678.19 182.15 678.073 182.266 677.915 182.331 677.75 182.33 677.583 182.329 677.422 182.265 677.3 182.15L675.76 180.6C675.545 180.357 675.558 179.987 675.79 179.76ZM675 189 672.85 189C672.505 188.956 672.26 188.641 672.304 188.296 672.34 188.011 672.565 187.786 672.85 187.75L675 187.75C675.345 187.706 675.661 187.951 675.704 188.296 675.748 188.641 675.504 188.956 675.158 189 675.106 189.007 675.053 189.007 675 189ZM678.18 195.4 676.63 196.95C676.356 197.165 675.96 197.116 675.746 196.842 675.565 196.612 675.567 196.288 675.75 196.06L677.29 194.52C677.562 194.302 677.958 194.346 678.176 194.618 678.358 194.846 678.36 195.17 678.18 195.4ZM684.7 202.5C683.666 202.505 682.798 201.72 682.7 200.69L686.61 200.69C686.516 201.686 685.7 202.459 684.7 202.5ZM687.14 199.44 682.25 199.44C681.753 199.44 681.35 199.037 681.35 198.54 681.35 198.043 681.753 197.64 682.25 197.64L687.14 197.64C687.637 197.64 688.04 198.043 688.04 198.54 688.04 199.037 687.637 199.44 687.14 199.44ZM688.33 196.33C688.314 196.366 688.279 196.389 688.24 196.39L681.15 196.39C681.121 196.402 681.089 196.402 681.06 196.39 680.555 195.286 679.917 194.249 679.16 193.3 678.619 192.691 678.192 191.99 677.9 191.23 677.584 190.426 677.408 189.574 677.38 188.71L677.38 188.4C677.529 184.36 680.925 181.206 684.966 181.355 688.796 181.497 691.868 184.57 692.01 188.4L692.01 188.66C691.982 189.526 691.809 190.381 691.5 191.19 691.203 191.948 690.777 192.648 690.24 193.26 689.483 194.204 688.842 195.234 688.33 196.33ZM693.74 196.81C693.623 196.926 693.465 196.991 693.3 196.99 693.133 196.989 692.972 196.925 692.85 196.81L691.3 195.26C691.086 194.986 691.134 194.59 691.408 194.376 691.638 194.195 691.962 194.197 692.19 194.38L693.74 195.92C693.98 196.168 693.98 196.562 693.74 196.81ZM696.54 189 694.36 189C694.015 189.044 693.7 188.799 693.656 188.454 693.612 188.109 693.856 187.794 694.202 187.75 694.254 187.743 694.307 187.743 694.36 187.75L696.54 187.75C696.885 187.706 697.201 187.951 697.244 188.296 697.288 188.641 697.044 188.956 696.698 189 696.646 189.007 696.593 189.007 696.54 189Z"/></g></svg>