<svg width="96" height="96" xmlns="http://www.w3.org/2000/svg" xmlns:xlink="http://www.w3.org/1999/xlink" xml:space="preserve" overflow="hidden"><defs><clipPath id="clip0"><rect x="192" y="307" width="96" height="96"/></clipPath></defs><g clip-path="url(#clip0)" transform="translate(-192 -307)"><path d="M230 349C230 352.314 227.314 355 224 355 220.686 355 218 352.314 218 349 218 345.686 220.686 343 224 343 227.314 343 230 345.686 230 349Z"/><path d="M262 349C262 352.314 259.314 355 256 355 252.686 355 250 352.314 250 349 250 345.686 252.686 343 256 343 259.314 343 262 345.686 262 349Z"/><path d="M258.2 368C257.5 368 256.9 368.3 256.6 368.8 252.8 373.8 246.8 376.9 240 376.9 233.2 376.9 227.3 373.8 223.4 368.8 223 368.3 222.4 368 221.8 368 220.7 368 219.8 368.9 219.8 370 219.8 370.4 219.9 370.8 220.2 371.2 224.8 377.2 231.9 381 240 381 248.1 381 255.2 377.2 259.8 371.2 260 370.9 260.2 370.5 260.2 370 260.2 368.9 259.3 368 258.2 368Z"/><path d="M240 321C258.7 321 274 336.3 274 355 274 373.7 258.7 389 240 389 221.3 389 206 373.7 206 355 206 336.3 221.3 321 240 321M240 317C219 317 202 334 202 355 202 376 219 393 240 393 261 393 278 376 278 355 278 334 261 317 240 317L240 317Z"/></g></svg>