<svg width="96" height="96" xmlns="http://www.w3.org/2000/svg" xmlns:xlink="http://www.w3.org/1999/xlink" xml:space="preserve" overflow="hidden"><defs><clipPath id="clip0"><rect x="797" y="171" width="96" height="96"/></clipPath></defs><g clip-path="url(#clip0)" transform="translate(-797 -171)"><path d="M825 243 824.9 243C824.5 241.3 822.9 240 821 240L813 240C811.1 240 809.6 241.3 809.1 243L809 243C806.8 243 805 244.8 805 247L807 253 827 253 829 247C829 244.8 827.2 243 825 243Z"/><path d="M822 233C822 235.761 819.761 238 817 238 814.239 238 812 235.761 812 233 812 230.239 814.239 228 817 228 819.761 228 822 230.239 822 233Z"/><path d="M853 243 853 243C852.5 241.3 850.9 240 849 240L841 240C839.1 240 837.6 241.3 837.1 243L837 243C834.8 243 833 244.8 833 247L835 253 855 253 857 247C857 244.8 855.2 243 853 243Z"/><path d="M850 233C850 235.761 847.761 238 845 238 842.239 238 840 235.761 840 233 840 230.239 842.239 228 845 228 847.761 228 850 230.239 850 233Z"/><path d="M881 243 881 243C880.5 241.3 878.9 240 877 240L869 240C867.1 240 865.6 241.3 865.1 243L865 243C862.8 243 861 244.8 861 247L863 253 883 253 885 247C885 244.8 883.2 243 881 243Z"/><path d="M878 233C878 235.761 875.761 238 873 238 870.239 238 868 235.761 868 233 868 230.239 870.239 228 873 228 875.761 228 878 230.239 878 233Z"/><path d="M801 185 801 234 809.1 234C809.1 233.7 809 233.3 809 233 809 228.6 812.6 225 817 225 821.4 225 825 228.6 825 233 825 233.3 825 233.7 824.9 234L837 234C837 233.7 836.9 233.3 836.9 233 836.9 228.6 840.5 225 844.9 225 849.3 225 852.9 228.6 852.9 233 852.9 233.3 852.9 233.7 852.8 234L864.9 234C864.9 233.7 864.8 233.3 864.8 233 864.8 228.6 868.4 225 872.8 225 877.2 225 880.8 228.6 880.8 233 880.8 233.3 880.8 233.7 880.7 234L889 234 889 185 801 185Z"/></g></svg>