<svg width="96" height="96" xmlns="http://www.w3.org/2000/svg" xmlns:xlink="http://www.w3.org/1999/xlink" xml:space="preserve" overflow="hidden"><defs><clipPath id="clip0"><rect x="488" y="163" width="96" height="96"/></clipPath></defs><g clip-path="url(#clip0)" transform="translate(-488 -163)"><path d="M535.1 182.7C532.8 182.7 530.9 184.6 530.9 186.9 530.9 189.2 532.8 191.1 535.1 191.1 537.4 191.1 539.3 189.2 539.3 186.9 539.3 184.6 537.4 182.7 535.1 182.7Z"/><path d="M526.7 207.2C526.7 209.52 524.82 211.4 522.5 211.4 520.18 211.4 518.3 209.52 518.3 207.2 518.3 204.88 520.18 203 522.5 203 524.82 203 526.7 204.88 526.7 207.2Z"/><path d="M547 188.3 544.5 189.5C544.3 190.3 543.9 191 543.5 191.7L544.4 194.3 542.4 196.3 539.8 195.4C539.1 195.8 538.4 196.1 537.6 196.3L536.4 198.7 533.6 198.7 532.4 196.2C531.6 196 530.9 195.7 530.2 195.3L527.6 196.2 525.6 194.2 526.5 191.6C526.1 190.9 525.8 190.2 525.6 189.4L523.1 188.2 523.1 185.4 525.6 184.2C525.8 183.4 526.1 182.7 526.5 182L525.7 179.4 527.7 177.4 530.3 178.3C531 177.9 531.7 177.6 532.5 177.4L533.7 174.9 536.5 174.9 537.7 177.3C538.5 177.5 539.2 177.8 539.9 178.2L542.5 177.3 544.5 179.3 543.6 181.9C544 182.6 544.3 183.3 544.5 184.1L547 185.3 547 188.3ZM534.4 208.6 531.9 209.8C531.7 210.6 531.4 211.3 531 212L531.8 214.6 529.8 216.6 527.2 215.7C526.5 216.1 525.8 216.4 525 216.6L523.9 219 521.1 219 519.9 216.5C519.1 216.3 518.4 216 517.7 215.6L515.1 216.4 513.1 214.4 514 211.8C513.6 211.1 513.3 210.4 513.1 209.6L510.6 208.4 510.6 205.6 513.1 204.4C513.3 203.6 513.6 202.9 514 202.2L513.1 199.6 515.1 197.6 517.7 198.5C518.4 198.1 519.1 197.8 519.9 197.6L521.1 195.1 524 195.1 525.2 197.6C526 197.8 526.7 198.1 527.4 198.5L530 197.6 532 199.6 531.1 202.2C531.5 202.9 531.8 203.6 532 204.4L534.5 205.6 534.4 208.6 534.4 208.6ZM569 212.3 562.1 200.3 562.1 199.8C562.5 188.8 556.9 178.5 547.4 172.8 537.9 167.2 526.2 167.2 516.7 172.8 507.2 178.4 501.6 188.8 502 199.8 502 209.3 506.3 218.2 513.8 224L513.8 249.3 545.4 249.3 545.4 237.3 550.3 237.3C553.5 237.3 556.5 236 558.7 233.8 560.9 231.5 562.1 228.5 562.1 225.3L562.1 219.3 566.5 219.3C569.1 219 571.4 216 569 212.3Z"/></g></svg>