<svg width="96" height="96" xmlns="http://www.w3.org/2000/svg" xmlns:xlink="http://www.w3.org/1999/xlink" xml:space="preserve" overflow="hidden"><defs><clipPath id="clip0"><rect x="183" y="412" width="96" height="96"/></clipPath></defs><g clip-path="url(#clip0)" transform="translate(-183 -412)"><path d="M242 473.8C229.5 470.8 221.1 477.2 220.7 477.5 219.8 478.2 219.7 479.4 220.3 480.3 220.7 480.8 221.3 481.1 221.9 481.1 222.3 481.1 222.8 481 223.1 480.7 223.2 480.6 230.3 475.2 241 477.7 242.1 478 243.2 477.3 243.4 476.2 243.8 475.1 243.1 474 242 473.8Z"/><path d="M221 456.7C221 460.014 218.314 462.7 215 462.7 211.686 462.7 209 460.014 209 456.7 209 453.386 211.686 450.7 215 450.7 218.314 450.7 221 453.386 221 456.7Z"/><path d="M210.2 445.7 220.2 444.7C221.3 444.6 222.1 443.6 222 442.5 221.9 441.4 220.9 440.6 219.8 440.7L209.8 441.7C208.7 441.8 207.9 442.8 208 443.9 208.1 444.9 209 445.7 210 445.7 210.1 445.7 210.1 445.7 210.2 445.7Z"/><path d="M253 456.7C253 460.014 250.314 462.7 247 462.7 243.686 462.7 241 460.014 241 456.7 241 453.386 243.686 450.7 247 450.7 250.314 450.7 253 453.386 253 456.7Z"/><path d="M252.2 441.7 242.2 440.7C241.1 440.6 240.1 441.4 240 442.5 239.9 443.6 240.7 444.6 241.8 444.7L251.8 445.7C251.9 445.7 251.9 445.7 252 445.7 253 445.7 253.9 444.9 254 443.9 254.1 442.8 253.3 441.8 252.2 441.7Z"/><path d="M231 426C249.7 426 265 441.3 265 460 265 478.7 249.7 494 231 494 212.3 494 197 478.7 197 460 197 441.3 212.3 426 231 426M231 422C210 422 193 439 193 460 193 481 210 498 231 498 252 498 269 481 269 460 269 439 252 422 231 422L231 422Z"/></g></svg>